<?xml version="1.0" encoding="UTF-8"?>
<svg viewBox="9.6 10.2 59.1 59.2" version="1.1" xmlns="http://www.w3.org/2000/svg">
 <defs>
  <linearGradient id="d" x1="5.8248" x2="10.351" y1="18.547" y2="17.929" gradientTransform="matrix(4.7565,0,0,2.8737,9.654,10.25)" gradientUnits="userSpaceOnUse">
   <stop stop-color="#A3CD39" offset=".1226"/>
   <stop stop-color="#86C339" offset=".2846"/>
   <stop stop-color="#21A038" offset=".8693"/>
  </linearGradient>
  <linearGradient id="e" x1="2.2789" x2="6.2815" y1="2.8981" y2="1.9766" gradientTransform="matrix(4.7565,0,0,2.8737,9.654,10.25)" gradientUnits="userSpaceOnUse">
   <stop stop-color="#0FA8E0" offset=".0592"/>
   <stop stop-color="#0099F9" offset=".5385"/>
   <stop stop-color="#0291EB" offset=".9234"/>
  </linearGradient>
  <linearGradient id="f" x1="2.8609" x2="1.9219" y1="10.437" y2="5.9444" gradientTransform="matrix(2.8737,0,0,4.7565,9.654,10.25)" gradientUnits="userSpaceOnUse">
   <stop stop-color="#F2E913" offset=".1444"/>
   <stop stop-color="#E7E518" offset=".3037"/>
   <stop stop-color="#CADB26" offset=".5823"/>
   <stop stop-color="#A3CD39" offset=".891"/>
  </linearGradient>
  <linearGradient id="a" x1="1.8315" x2="2.9828" y1="6.695" y2="2.1176" gradientTransform="matrix(2.9905,0,0,4.5708,9.654,10.25)" gradientUnits="userSpaceOnUse">
   <stop stop-color="#A3CD39" offset=".0698"/>
   <stop stop-color="#81C55F" offset=".2599"/>
   <stop stop-color="#0FA8E0" offset=".9216"/>
  </linearGradient>
  <linearGradient id="b" x1="2.0994" x2="6.483" y1="16.889" y2="17.961" gradientTransform="matrix(4.5708,0,0,2.9905,9.654,10.25)" gradientUnits="userSpaceOnUse">
   <stop stop-color="#F2E913" offset=".1324"/>
   <stop stop-color="#EBE716" offset=".2977"/>
   <stop stop-color="#D9E01F" offset=".5306"/>
   <stop stop-color="#BBD62D" offset=".8023"/>
   <stop stop-color="#A3CD39" offset=".9829"/>
  </linearGradient>
  <linearGradient id="c" x1="5.8242" x2="9.626" y1="1.6952" y2="2.3792" gradientTransform="matrix(4.8418,0,0,2.8231,9.654,10.25)" gradientUnits="userSpaceOnUse">
   <stop stop-color="#0291EB" offset=".0566"/>
   <stop stop-color="#0C8ACB" offset=".79"/>
  </linearGradient>
 </defs>
 <path d="m62.448 22.14c1.3848 1.7886 2.5387 3.7504 3.5196 5.8275l-26.657 19.675-11.193-7.0392v-8.4239l11.136 6.9815z" fill="#21a038"/>
 <path d="m16.751 40.02c0-0.40391 0-0.75008 0.05771-1.154l-6.7507-0.34606c0 0.46159-0.05771 0.98086-0.05771 1.4424 0 8.0778 3.2888 15.405 8.597 20.714l4.7889-4.789c-4.0966-4.0389-6.6353-9.6356-6.6353-15.867z" fill="url(#f)"/>
 <path d="m39.253 17.52c0.40388 0 0.75008 0 1.154 0.0577l0.3462-6.7507c-0.46158 0-0.98087-0.0577-1.4425-0.0577-8.0777 0-15.405 3.2888-20.714 8.597l4.7889 4.7889c4.0389-4.0966 9.6933-6.6353 15.867-6.6353z" fill="url(#e)"/>
 <path d="m39.253 62.53c-0.40389 0-0.75008 0-1.154-0.0577l-0.3462 6.7507c0.46158 0 0.98087 0.0577 1.4425 0.0577 8.0777 0 15.405-3.2888 20.714-8.597l-4.7889-4.789c-4.0389 4.1543-9.6356 6.6353-15.867 6.6353z" fill="url(#d)"/>
 <path d="m51.947 21.45 5.7121-4.212c-5.0197-4.0388-11.424-6.5199-18.406-6.5199v6.7507c4.7312 0.0577 9.1163 1.5002 12.694 3.9812z" fill="url(#c)"/>
 <path d="m68.563 40.02c0-1.7886-0.1731-3.5196-0.46159-5.2505l-6.2891 4.6736v0.57697c0 6.6353-2.8849 12.578-7.4431 16.675l4.5582 5.0198c5.8852-5.3082 9.6356-13.097 9.6356-21.695z" fill="#21a038"/>
 <path d="m39.253 62.53c-6.6353 0-12.578-2.8849-16.675-7.4431l-5.0197 4.5582c5.3659 5.9429 13.097 9.6356 21.695 9.6356z" fill="url(#b)"/>
 <path d="m24.194 23.35-4.5582-5.0198c-5.9429 5.3659-9.6356 13.097-9.6356 21.694h6.7507c0-6.5776 2.8849-12.578 7.4431-16.675z" fill="url(#a)"/>
</svg>
