<svg xmlns="http://www.w3.org/2000/svg" viewBox="0 0 28 51" width="28" height="51"><g transform="matrix(1.25,0,0,-1.25,-193.46271,442.73946)"><path d="m 176.35099,354.19157 -3.41473,0 c -0.30244,0 -0.49129,-0.14862 -0.53497,-0.36406 -0.0433,-0.21628 -5.12093,-15.71012 -5.48993,-17.00069 -0.26166,-0.91504 -1.11487,-4.14063 -1.31955,-4.91518 l -1.7659,4.82505 c -0.4291,1.32803 -4.54187,12.82654 -4.66252,13.28594 -0.0665,0.2525 -0.1824,0.56639 -0.62461,0.56639 l -3.3338,0 c -0.32593,0 -0.51044,-0.35782 -0.40518,-0.57971 0.0838,-0.17776 6.1058,-16.21031 8.53856,-22.33509 l 0,-13.4664 c 0,-0.24563 0.0982,-0.393 0.34298,-0.393 l 3.15743,0 c 0.19574,0 0.34257,0.14737 0.34257,0.393 l 0,12.76554 0,0.59471 c 2.028,5.66807 9.43567,25.83147 9.51617,26.05711 0.0984,0.2758 0.0695,0.56639 -0.34652,0.56639 z" style="fill:#e52620;fill-opacity:1;fill-rule:nonzero;stroke:none" /></g></svg>
